<svg width="24" height="24" viewBox="0 0 24 24" fill="none" xmlns="http://www.w3.org/2000/svg">
<path d="M12.1 18.55L12 18.65L11.89 18.55C7.14 14.24 4 11.39 4 8.5C4 6.5 5.5 5 7.5 5C9.04 5 10.54 6 11.07 7.36H12.93C13.46 6 14.96 5 16.5 5C18.5 5 20 6.5 20 8.5C20 11.39 16.86 14.24 12.1 18.55ZM16.5 3C14.76 3 13.09 3.81 12 5.08C10.91 3.81 9.24 3 7.5 3C4.42 3 2 5.41 2 8.5C2 12.27 5.4 15.36 10.55 20.03L12 21.35L13.45 20.03C18.6 15.36 22 12.27 22 8.5C22 5.41 19.58 3 16.5 3Z" fill="black"/>
<path d="M12.1 18.55L12 18.65L11.89 18.55C7.14 14.24 4 11.39 4 8.5C4 6.5 5.5 5 7.5 5C9.04 5 10.54 6 11.07 7.36H12.93C13.46 6 14.96 5 16.5 5C18.5 5 20 6.5 20 8.5C20 11.39 16.86 14.24 12.1 18.55Z" fill="#FF6666"/>
<path fill-rule="evenodd" clip-rule="evenodd" d="M1.5 8.5C1.5 5.13326 4.14445 2.5 7.5 2.5C9.19877 2.5 10.8295 3.20826 12 4.35013C13.1705 3.20826 14.8012 2.5 16.5 2.5C19.8555 2.5 22.5 5.13326 22.5 8.5C22.5 10.5494 21.5715 12.3744 20.0434 14.2439C18.5208 16.1067 16.3511 18.0743 13.786 20.4003L12 22.0262L10.2141 20.4004C7.64901 18.0744 5.4792 16.1067 3.95662 14.2439C2.42852 12.3744 1.5 10.5494 1.5 8.5ZM7.5 3.5C4.69555 3.5 2.5 5.68674 2.5 8.5C2.5 10.2206 3.27148 11.8256 4.73088 13.6111C6.19578 15.4033 8.30104 17.3157 10.8859 19.6596L12 20.6738L13.1134 19.6603C15.6982 17.3163 17.8042 15.4033 19.2691 13.6111C20.7285 11.8256 21.5 10.2206 21.5 8.5C21.5 5.68674 19.3045 3.5 16.5 3.5C14.9112 3.5 13.3779 4.24223 12.3794 5.40564L12 5.84771L11.6206 5.40564C10.6221 4.24223 9.08885 3.5 7.5 3.5ZM7.5 5.5C5.77614 5.5 4.5 6.77614 4.5 8.5C4.5 9.76051 5.18543 11.0789 6.54377 12.6676C7.85333 14.1991 9.71648 15.9022 11.9952 17.9703C14.2788 15.9021 16.1444 14.199 17.4551 12.6674C18.8146 11.0789 19.5 9.76044 19.5 8.5C19.5 6.77614 18.2239 5.5 16.5 5.5C15.1544 5.5 13.8469 6.38424 13.3959 7.54155L13.2718 7.86H10.7282L10.6041 7.54155C10.1531 6.38424 8.84562 5.5 7.5 5.5ZM3.5 8.5C3.5 6.22386 5.22386 4.5 7.5 4.5C9.1141 4.5 10.6919 5.46637 11.3939 6.86H12.6061C13.3081 5.46637 14.8859 4.5 16.5 4.5C18.7761 4.5 20.5 6.22386 20.5 8.5C20.5 10.1296 19.6154 11.6811 18.2149 13.3176C16.8113 14.9576 14.812 16.7689 12.4448 18.9123L12.0164 19.3407L11.5346 18.9027C9.17695 16.7634 7.1839 14.955 5.78373 13.3174C4.38457 11.6811 3.5 10.1295 3.5 8.5Z" fill="black"/>
</svg>
