<svg width="11" height="14" viewBox="0 0 11 14" fill="none" xmlns="http://www.w3.org/2000/svg">
<path d="M11 7.00007C11.0004 7.16983 10.9569 7.33682 10.8736 7.48478C10.7904 7.63274 10.6703 7.75665 10.525 7.84444L1.52 13.3532C1.36818 13.4462 1.19429 13.4969 1.0163 13.5002C0.838305 13.5035 0.662659 13.4592 0.5075 13.3719C0.353819 13.286 0.225798 13.1607 0.136602 13.0089C0.0474072 12.8571 0.000256786 12.6843 0 12.5082V1.49194C0.000256786 1.31587 0.0474072 1.14304 0.136602 0.991237C0.225798 0.83943 0.353819 0.714119 0.5075 0.628193C0.662659 0.540911 0.838305 0.496631 1.0163 0.499927C1.19429 0.503223 1.36818 0.553976 1.52 0.646943L10.525 6.15569C10.6703 6.24349 10.7904 6.36739 10.8736 6.51535C10.9569 6.66332 11.0004 6.8303 11 7.00007Z" fill="black"/>
</svg>
