<svg width="24" height="23" viewBox="0 0 24 23" fill="none" xmlns="http://www.w3.org/2000/svg">
<path d="M9 11.1109C9.00013 11.6602 9.17614 12.1972 9.5058 12.6539C9.83545 13.1106 10.3039 13.4665 10.852 13.6767C11.4001 13.8869 12.0032 13.9419 12.5851 13.8348C13.167 13.7277 13.7014 13.4632 14.121 13.0748L17.481 16.1859C15.8298 17.1154 13.9324 17.6023 12 17.5924C7.336 17.5924 3.6 14.9045 2 11.1109C2.901 8.97483 4.48 7.18872 6.52 6.03687L9.879 9.14705C9.59996 9.40463 9.37866 9.71073 9.22781 10.0478C9.07696 10.3848 8.99954 10.7461 9 11.1109Z" fill="white"/>
<path d="M10.73 4.69723C11.1516 4.65195 11.5756 4.62939 12 4.62964C16.664 4.62964 20.4 7.3176 22 11.1111C21.6127 12.0339 21.0894 12.9026 20.445 13.6926M6.52 6.03612C4.48 7.1889 2.9 8.97501 2 11.1111C3.6 14.9046 7.336 17.5926 12 17.5926C13.9321 17.602 15.8292 17.1148 17.48 16.1852M9.88 9.14816C9.6014 9.40612 9.3804 9.71237 9.22963 10.0494C9.07885 10.3865 9.00125 10.7477 9.00125 11.1125C9.00125 11.4773 9.07885 11.8386 9.22963 12.1756C9.3804 12.5127 9.6014 12.8189 9.88 13.0769C10.1586 13.3348 10.4893 13.5395 10.8534 13.6791C11.2174 13.8187 11.6075 13.8905 12.0015 13.8905C12.3955 13.8905 12.7856 13.8187 13.1496 13.6791C13.5137 13.5395 13.8444 13.3348 14.123 13.0769" stroke="#0D0C0C" stroke-width="2" stroke-linecap="round" stroke-linejoin="round"/>
<path d="M4 3.70361L20 18.5184Z" fill="#FFE53C"/>
<path d="M4 3.70361L20 18.5184" stroke="#0D0C0C" stroke-width="2" stroke-linecap="round"/>
</svg>
